# xmcd
#
# Track frame offsets: 
#        150
#        26935
#        51595
#        81352
#        110870
#        141290
#        158457
#        170402
#        181452
#        190200
#
# Disc length: 2852 seconds
#
# Revision: 1
# Processed by: cddbd v1.5.2PL0 Copyright (c) Steve Scherf et al.
# Submitted via: ExactAudioCopy v1.0b3
#
DISCID=900b220a
DTITLE=新・吹奏楽名曲セレクション - コウディル、オリヴァドティ＆ワルターズ・コレクション
DYEAR=1900
DGENRE=吹奏楽 (日本)
TTITLE0=兼田敏・東京佼成吹奏楽団 - 吹奏楽のための民話
TTITLE1=井町昭・大阪府吹奏楽団 - ヘリテージ序曲
TTITLE2=井町昭・大阪府吹奏楽団 - バラの謝肉祭
TTITLE3=兼田敏・東京佼成吹奏楽団 - ポンセ・デ・レオン
TTITLE4=永野慶作・大阪市音楽団 - イシターの凱旋
TTITLE5=朝比奈隆・大阪市音楽団 - リートニア序曲
TTITLE6=兼田敏・東京佼成吹奏楽団 - ジャマイカ民謡組曲 - (a)メント
TTITLE7=兼田敏・東京佼成吹奏楽団 - ジャマイカ民謡組曲 - (b)プロムナード
TTITLE8=兼田敏・東京佼成吹奏楽団 - ジャマイカ民謡組曲 - (c)ジャンプ・アップ
TTITLE9=井町昭・大阪府吹奏楽団 - 西部の人々
EXTD=
EXTT0=
EXTT1=
EXTT2=
EXTT3=
EXTT4=
EXTT5=
EXTT6=
EXTT7=
EXTT8=
EXTT9=
PLAYORDER=
